<?xml version="1.0" encoding="utf-8"?>
<!-- Generator: Adobe Illustrator 19.1.0, SVG Export Plug-In . SVG Version: 6.00 Build 0)  -->
<!DOCTYPE svg PUBLIC "-//W3C//DTD SVG 1.1//EN" "http://www.w3.org/Graphics/SVG/1.1/DTD/svg11.dtd">
<svg version="1.1" id="Layer_1" xmlns="http://www.w3.org/2000/svg" xmlns:xlink="http://www.w3.org/1999/xlink" x="0px" y="0px"
	 viewBox="0 0 36 36" enable-background="new 0 0 36 36" xml:space="preserve">
<path fill="#B12126" d="M21.1,16.7c0-0.8-0.6-1.5-1.4-1.5c-0.1-0.3-0.1-0.6-0.2-0.9c0.7-0.4,0.9-1.3,0.5-2c-0.4-0.7-1.3-0.9-2-0.6
	c-0.2-0.2-0.4-0.5-0.7-0.7c0.4-0.7,0.1-1.6-0.6-2c-0.7-0.4-1.6-0.2-2,0.5c-0.3-0.1-0.6-0.2-0.9-0.2c0-0.8-0.7-1.4-1.5-1.4
	c-0.8,0-1.5,0.6-1.5,1.4c-0.3,0.1-0.6,0.1-0.9,0.2C9.5,8.9,8.6,8.6,7.9,9C7.2,9.4,7,10.3,7.3,11c-0.2,0.2-0.5,0.4-0.7,0.7
	c-0.7-0.4-1.6-0.1-2,0.6c-0.4,0.7-0.2,1.6,0.5,2c-0.1,0.3-0.2,0.6-0.2,0.9c-0.8,0-1.4,0.7-1.4,1.5c0,0.8,0.6,1.5,1.4,1.5
	c0.1,0.3,0.1,0.6,0.2,0.9c-0.7,0.4-0.9,1.3-0.5,2C5,21.6,5.5,21.8,6,21.8c0.2,0,0.5-0.1,0.7-0.2c0.2,0.2,0.4,0.5,0.7,0.7
	c-0.4,0.7-0.1,1.6,0.6,2c0.2,0.1,0.5,0.2,0.8,0.2c0.5,0,1-0.2,1.3-0.7c0.3,0.1,0.6,0.2,0.9,0.2c0,0.8,0.7,1.4,1.5,1.4
	c0.8,0,1.5-0.6,1.5-1.4c0.3-0.1,0.6-0.1,0.9-0.2c0.3,0.4,0.8,0.7,1.3,0.7c0.3,0,0.5-0.1,0.7-0.2c0.7-0.4,0.9-1.3,0.6-2
	c0.2-0.2,0.5-0.4,0.7-0.7c0.2,0.1,0.5,0.2,0.7,0.2c0.5,0,1-0.3,1.3-0.8c0.4-0.7,0.2-1.6-0.5-2c0.1-0.3,0.2-0.6,0.2-0.9
	C20.5,18.1,21.1,17.5,21.1,16.7z M15.2,16.7c0,1.6-1.3,2.9-2.9,2.9c-1.6,0-2.9-1.3-2.9-2.9c0-1.6,1.3-2.9,2.9-2.9
	C13.9,13.8,15.2,15.1,15.2,16.7z"/>
<path fill="#B12126" d="M31.5,23.1c0.5,0,1-0.4,1-1c0-0.5-0.4-1-1-1h-0.2c0-0.2-0.1-0.4-0.2-0.6l0.2-0.1c0.5-0.3,0.6-0.9,0.4-1.3
	c-0.3-0.5-0.9-0.6-1.3-0.4l-0.2,0.1c-0.1-0.1-0.3-0.3-0.4-0.4l0.1-0.2c0.3-0.5,0.1-1.1-0.4-1.3c-0.5-0.3-1.1-0.1-1.3,0.4L28,17.5
	c-0.2-0.1-0.4-0.1-0.6-0.2v-0.2c0-0.5-0.4-1-1-1c-0.5,0-1,0.4-1,1v0.2c-0.2,0-0.4,0.1-0.6,0.2l-0.1-0.2c-0.3-0.5-0.9-0.6-1.3-0.4
	c-0.5,0.3-0.6,0.9-0.4,1.3l0.1,0.2c-0.1,0.1-0.3,0.3-0.4,0.4l-0.2-0.1c-0.5-0.3-1.1-0.1-1.3,0.4c-0.3,0.5-0.1,1.1,0.4,1.3l0.2,0.1
	c-0.1,0.2-0.1,0.4-0.2,0.6h-0.2c-0.5,0-1,0.4-1,1c0,0.5,0.4,1,1,1h0.2c0,0.2,0.1,0.4,0.2,0.6l-0.2,0.1c-0.5,0.3-0.6,0.9-0.4,1.3
	c0.2,0.3,0.5,0.5,0.8,0.5c0.2,0,0.3,0,0.5-0.1l0.2-0.1c0.1,0.1,0.3,0.3,0.4,0.4L23.2,26c-0.3,0.5-0.1,1.1,0.4,1.3
	c0.2,0.1,0.3,0.1,0.5,0.1c0.3,0,0.7-0.2,0.8-0.5l0.1-0.2c0.2,0.1,0.4,0.1,0.6,0.2v0.2c0,0.5,0.4,1,1,1c0.5,0,1-0.4,1-1v-0.2
	c0.2,0,0.4-0.1,0.6-0.2l0.1,0.2c0.2,0.3,0.5,0.5,0.8,0.5c0.2,0,0.3,0,0.5-0.1c0.5-0.3,0.6-0.9,0.4-1.3l-0.1-0.2
	c0.1-0.1,0.3-0.3,0.4-0.4l0.2,0.1c0.2,0.1,0.3,0.1,0.5,0.1c0.3,0,0.7-0.2,0.8-0.5c0.3-0.5,0.1-1.1-0.4-1.3l-0.2-0.1
	c0.1-0.2,0.1-0.4,0.2-0.6H31.5z M28.4,22.2c0,1-0.8,1.9-1.9,1.9c-1,0-1.9-0.8-1.9-1.9c0-1,0.8-1.9,1.9-1.9
	C27.5,20.3,28.4,21.1,28.4,22.2z"/>
</svg>
