<?xml version="1.0" encoding="utf-8"?>
<!-- Generator: Adobe Illustrator 19.1.0, SVG Export Plug-In . SVG Version: 6.00 Build 0)  -->
<!DOCTYPE svg PUBLIC "-//W3C//DTD SVG 1.1//EN" "http://www.w3.org/Graphics/SVG/1.1/DTD/svg11.dtd">
<svg version="1.1" id="Layer_1" xmlns="http://www.w3.org/2000/svg" xmlns:xlink="http://www.w3.org/1999/xlink" x="0px" y="0px"
	 viewBox="0 0 36 36" enable-background="new 0 0 36 36" xml:space="preserve">
<g>
	<g>
		<path fill="#B12126" d="M29.3,16.2c-0.4-0.2-0.4-0.9-0.8-1.4c-0.4-0.4-0.8-1.4-1.2-1.7c-0.4-0.3-1.2-0.6-1.5-0.6
			c-0.3,0-0.5,0-0.5-0.2c0-0.2-0.1-0.6-0.1-1.1c0-0.7-1.3-5.7-2.7-4.4c-0.2,0.2,0,1-0.5,1c-0.2,0-0.5-0.7-0.6-0.8
			c-0.3-0.3-0.6-0.7-1-0.8c-0.1,0-0.2,0-0.3,0c-0.4,0-0.7,0.2-0.7,0.6c0,0.5-0.1,2.6,0.1,3.3c0.2,0.7,0.9,1.7,1.5,2.4
			c0.4,0.5,0.2,1.8,0.2,2.4c0,0.6-0.1,1.1-0.4,1.1c-0.2,0-0.6,0.2-0.9,0.5c-0.2,0.2-0.5,0.6-0.8,0.3c-0.3-0.2-0.9-0.5-1.9-0.7
			c-1-0.2-2.7,0-3.7,0.4c-1.1,0.4-3.3,2.4-3.9,3.3c-0.4,0.7-0.6,2.3-0.6,3.3c-0.1,0-0.2,0-0.3,0c-1.4,0-2.5,1.1-2.5,2.5
			c0,2.5,2.7,2.6,4.5,3c2.1,0.4,6.4,2.2,8.2,0.4c0.3-0.3-0.2-0.7-0.4-1.1c-0.2-0.4,0.6-0.3,0.9-0.4c0.2-0.1,0.9-0.5,1.4-0.5
			c0.4,0,0.4,0.4,0.9,0.7c1,0.4,1.5,1.2,2.6,1.3c0.5,0,2,0.2,2.2-0.6c0.2-0.9-1.4-1.1-1.8-1.6c-1-1.2,0.9-1.4,1.4-2
			c0.9-1.1,1.1-3.4,0.4-4.6c-0.2-0.3,0.2-0.7,0.4-0.7s1.4-0.2,1.8-0.4c0.4-0.2,0.9-1,1.2-1.4C30,17.3,29.8,16.5,29.3,16.2z
			 M25.3,15.4c-0.4,0-0.7-0.3-0.7-0.6c0-0.3,0.3-0.6,0.7-0.6c0.4,0,0.7,0.3,0.7,0.6C25.9,15.1,25.6,15.4,25.3,15.4z"/>
	</g>
	<ellipse fill="#B12126" cx="25.3" cy="14.9" rx="0.4" ry="0.4"/>
</g>
</svg>
