<?xml version="1.0" encoding="utf-8"?>
<!-- Generator: Adobe Illustrator 19.1.0, SVG Export Plug-In . SVG Version: 6.00 Build 0)  -->
<!DOCTYPE svg PUBLIC "-//W3C//DTD SVG 1.1//EN" "http://www.w3.org/Graphics/SVG/1.1/DTD/svg11.dtd">
<svg version="1.1" id="Layer_1" xmlns="http://www.w3.org/2000/svg" xmlns:xlink="http://www.w3.org/1999/xlink" x="0px" y="0px"
	 viewBox="0 0 36 36" enable-background="new 0 0 36 36" xml:space="preserve">
<path fill="#B12126" d="M17.2,7.8c-0.6-0.3-1.4-0.2-1.9,0.3l-5.2,4.5H5.4c-1,0-1.8,0.8-1.8,1.8v7.3c0,1,0.8,1.8,1.8,1.8h4.7l5.2,4.5
	c0.3,0.3,0.7,0.4,1.1,0.4c0.2,0,0.5-0.1,0.7-0.2c0.6-0.3,1-0.9,1-1.6V9.4C18.2,8.8,17.8,8.1,17.2,7.8z"/>
<path fill="#B12126" d="M32,21.6L28.4,18l3.6-3.6c0.5-0.5,0.5-1.2,0-1.7c-0.5-0.5-1.2-0.5-1.7,0l-3.6,3.6l-3.6-3.6
	c-0.5-0.5-1.2-0.5-1.7,0c-0.5,0.5-0.5,1.2,0,1.7l3.6,3.6l-3.6,3.6c-0.5,0.5-0.5,1.2,0,1.7c0.2,0.2,0.5,0.3,0.8,0.3
	c0.3,0,0.6-0.1,0.8-0.3l3.6-3.6l3.6,3.6c0.2,0.2,0.5,0.3,0.8,0.3c0.3,0,0.6-0.1,0.8-0.3C32.4,22.8,32.4,22,32,21.6z"/>
</svg>
