<?xml version="1.0" encoding="utf-8"?>
<!-- Generator: Adobe Illustrator 19.1.0, SVG Export Plug-In . SVG Version: 6.00 Build 0)  -->
<!DOCTYPE svg PUBLIC "-//W3C//DTD SVG 1.1//EN" "http://www.w3.org/Graphics/SVG/1.1/DTD/svg11.dtd">
<svg version="1.1" id="Layer_1" xmlns="http://www.w3.org/2000/svg" xmlns:xlink="http://www.w3.org/1999/xlink" x="0px" y="0px"
	 viewBox="0 0 36 36" enable-background="new 0 0 36 36" xml:space="preserve">
<path fill="#B12126" d="M15.7,21.6L12.1,18l3.6-3.6c0.5-0.5,0.5-1.2,0-1.7c-0.5-0.5-1.2-0.5-1.7,0l-3.6,3.6l-3.6-3.6
	c-0.5-0.5-1.2-0.5-1.7,0c-0.5,0.5-0.5,1.2,0,1.7L8.8,18l-3.6,3.6c-0.5,0.5-0.5,1.2,0,1.7c0.2,0.2,0.5,0.3,0.8,0.3
	c0.3,0,0.6-0.1,0.8-0.3l3.6-3.6l3.6,3.6c0.2,0.2,0.5,0.3,0.8,0.3c0.3,0,0.6-0.1,0.8-0.3C16.1,22.8,16.1,22,15.7,21.6z"/>
<path fill="#B12126" d="M20.2,22.7c-0.3,0-0.6-0.1-0.8-0.3c-0.5-0.5-0.5-1.2,0-1.6c0.2-0.2,2.1-2.4-0.1-5.5
	c-0.4-0.5-0.3-1.3,0.3-1.6c0.5-0.4,1.3-0.3,1.6,0.3c2.8,3.8,1.1,7.2-0.1,8.5C20.8,22.5,20.5,22.7,20.2,22.7L20.2,22.7z"/>
<path fill="#B12126" d="M23.3,27.1c-0.2,0-0.5-0.1-0.7-0.2c-0.5-0.4-0.6-1.1-0.2-1.6c0.2-0.3,5.4-7.3,0-14.4
	C22,10.3,22,9.6,22.6,9.2c0.5-0.4,1.2-0.3,1.6,0.2c6.6,8.5,0.1,17.1,0,17.2C24,26.9,23.6,27.1,23.3,27.1L23.3,27.1z"/>
<path fill="#B12126" d="M26.8,30.6c-0.3,0-0.5-0.1-0.7-0.3c-0.5-0.4-0.6-1.1-0.2-1.6c0.3-0.4,8.1-10.3,0-21.4
	c-0.4-0.5-0.3-1.2,0.2-1.6c0.5-0.4,1.2-0.3,1.6,0.2c9.3,12.6,0.1,24.2,0,24.3C27.5,30.4,27.2,30.6,26.8,30.6L26.8,30.6z"/>
</svg>
