<?xml version="1.0" encoding="utf-8"?>
<!-- Generator: Adobe Illustrator 19.1.0, SVG Export Plug-In . SVG Version: 6.00 Build 0)  -->
<!DOCTYPE svg PUBLIC "-//W3C//DTD SVG 1.1//EN" "http://www.w3.org/Graphics/SVG/1.1/DTD/svg11.dtd">
<svg version="1.1" id="Layer_1" xmlns="http://www.w3.org/2000/svg" xmlns:xlink="http://www.w3.org/1999/xlink" x="0px" y="0px"
	 viewBox="0 0 36 36" enable-background="new 0 0 36 36" xml:space="preserve">
<g>
	<path fill="#B11F24" d="M15.1,26.6c-1.3,0-2.4-1.1-2.4-2.4V13.6c0-1.3,1.1-2.4,2.4-2.4c1.3,0,2.4,1.1,2.4,2.4v10.6
		C17.5,25.5,16.4,26.6,15.1,26.6L15.1,26.6z"/>
	<path fill="#B11F24" d="M21.3,26.6c-1.3,0-2.4-1.1-2.4-2.4V13.6c0-1.3,1.1-2.4,2.4-2.4c1.3,0,2.4,1.1,2.4,2.4v10.6
		C23.7,25.5,22.6,26.6,21.3,26.6L21.3,26.6z"/>
</g>
</svg>
