<?xml version="1.0" encoding="utf-8"?>
<!-- Generator: Adobe Illustrator 19.1.0, SVG Export Plug-In . SVG Version: 6.00 Build 0)  -->
<!DOCTYPE svg PUBLIC "-//W3C//DTD SVG 1.1//EN" "http://www.w3.org/Graphics/SVG/1.1/DTD/svg11.dtd">
<svg version="1.1" id="Layer_1" xmlns="http://www.w3.org/2000/svg" xmlns:xlink="http://www.w3.org/1999/xlink" x="0px" y="0px"
	 viewBox="0 0 36 36" enable-background="new 0 0 36 36" xml:space="preserve">
<g>
	<path fill="#B11F24" d="M32,16.7L20.9,9.1c-0.5-0.3-1.1-0.4-1.6-0.1c-0.5,0.3-0.8,0.8-0.8,1.3l0,15.3c0,0.6,0.3,1.1,0.8,1.3
		c0.2,0.1,0.5,0.2,0.7,0.2c0.3,0,0.6-0.1,0.9-0.3L32,19.3c0.4-0.3,0.7-0.8,0.7-1.3C32.7,17.5,32.4,17,32,16.7z"/>
</g>
<g>
	<path fill="#B11F24" d="M6.1,25.6c-1.3,0-2.4-1.1-2.4-2.4V12.6c0-1.3,1.1-2.4,2.4-2.4c1.3,0,2.4,1.1,2.4,2.4v10.6
		C8.5,24.5,7.4,25.6,6.1,25.6L6.1,25.6z"/>
	<path fill="#B11F24" d="M12.3,25.6c-1.3,0-2.4-1.1-2.4-2.4V12.6c0-1.3,1.1-2.4,2.4-2.4c1.3,0,2.4,1.1,2.4,2.4v10.6
		C14.7,24.5,13.6,25.6,12.3,25.6L12.3,25.6z"/>
</g>
</svg>
