<?xml version="1.0" encoding="utf-8"?>
<!-- Generator: Adobe Illustrator 19.1.0, SVG Export Plug-In . SVG Version: 6.00 Build 0)  -->
<!DOCTYPE svg PUBLIC "-//W3C//DTD SVG 1.1//EN" "http://www.w3.org/Graphics/SVG/1.1/DTD/svg11.dtd">
<svg version="1.1" id="Layer_1" xmlns="http://www.w3.org/2000/svg" xmlns:xlink="http://www.w3.org/1999/xlink" x="0px" y="0px"
	 viewBox="0 0 36 36" enable-background="new 0 0 36 36" xml:space="preserve">
<g>
	<path fill-rule="evenodd" clip-rule="evenodd" fill="#B12126" d="M10.8,12.7c0.6,0.2,1.3,0.8,2.3,1c1,0.1,2.5,0,3.8-0.1
		c0.9,0,1.8,0.1,2.5-0.1c0.4-0.1,0.9-0.5,1.2-0.8c0.4-0.3,0.8-0.6,1-0.9c-1.6-0.9-3.7-1.8-6.3-1.6C13.4,10.5,11.8,11.7,10.8,12.7z"
		/>
	<path fill-rule="evenodd" clip-rule="evenodd" fill="#B12126" d="M21.8,12.2c0.6,0.3,1.7,1.2,1.7,1.2c0.7,0.5,1.9,1.1,3,0.8
		c-0.4,1.5-1.4,2-2.6,2.5c-0.5-0.3-3.2-1.8-3.7-2.4C19.5,13.5,21.4,12.7,21.8,12.2z"/>
	<path fill-rule="evenodd" clip-rule="evenodd" fill="#B12126" d="M9.8,13.1c-0.3,0.4-0.7,0.6-0.9,0.9c-0.3,0.4-1.5,2-1.6,2.4
		c0.8,0.2,1.5,0.5,2.2,0.8c0.9-0.8,1.7-1.7,2.3-2.9C11.4,13.7,9.7,13.1,9.8,13.1z"/>
	<path fill-rule="evenodd" clip-rule="evenodd" fill="#B12126" d="M6.5,19c0.2-0.7,0.7-1.2,1.2-1.6c-1.7-0.1-3.2-0.4-4.5-1
		c0,0.5,0.5,0.8,0.8,1.1C4.1,17.5,5.7,18.8,6.5,19z"/>
	<path fill="#B12126" d="M11.4,17.9c-0.1,0-0.8-0.3-0.8-0.3c-0.1,0-0.1-0.1-0.1-0.2c0.4-0.5,0.9-1,1.4-1.6c0.4-0.5,1-1.1,1.6-1.4
		c1.1-0.4,4.6-0.4,5.9-0.1c0.4,0.1,0.7,0.5,1,0.8c1,0.7,2,1.3,2.7,2.1c-0.1-0.1-0.6,0.2-0.6,0.2c0,0-1.2,0.4-1.3,0.4c0,0,0,0,0,0
		c0,0-0.1,0-0.1,0c-0.1,0-0.2,0-0.2,0.1c-0.1,0-0.2,0-0.2,0c0,0-0.9,0.2-1,0.3c0,0-1.2,0.2-1.2,0.2c-0.1,0-0.3,0-0.4,0c0,0,0,0,0,0
		c0,0,0,0,0,0c0,0,0,0,0,0c0,0-0.8,0-1,0.1c0,0,0,0,0,0c0,0,0,0,0,0c-0.3,0-1.1,0-1.1,0c0,0,0,0,0,0l0,0c-0.1,0-0.8,0-1,0
		c-0.2,0-2.7-0.4-2.8-0.4c0,0,0,0,0,0C11.9,18.1,11.7,18,11.4,17.9C11.4,17.9,11.4,17.9,11.4,17.9z"/>
	<path fill="#B12126" d="M24.2,21.1c1.4-0.9,3.7-1.5,6.1-1.1c0.4,0.1,0.9,0.3,1.2,0.3c0.6-0.1,1.2-0.8,1.2-1.4
		c0.1-1.4-1.7-2.6-3-2.7c-2.2-0.3-3.8,0.5-5.1,1.2c-0.7,0.4-1.5,1-2.8,0.8h-0.2c0,0-0.1,0-0.1,0c0,0,0,0,0,0
		c0.4,0.2,0.8,0.5,1.2,0.8c0.1,0,0.3,0.3,0.3,0.3c0.1,0.2,0.5,0.6,0.6,0.7c0.1,0.1,0.1,0.1,0.1,0.2C24,20.4,24.1,20.8,24.2,21.1z
		 M29.9,17.5c0-0.9,1.3-0.5,0.9,0.3C30.5,17.8,30.1,17.7,29.9,17.5z"/>
	<path fill="#B12126" d="M11,20.2c0.1-0.3,0.4-1.4,0.5-1.6c0.3-0.1,0.7,0.1,1.1,0.2c0,0,0.6,0.2,0.9,0.2c0.2,0,0.7,0.1,0.7,0.1
		c0.2,0,0.7,0,0.8,0l0.3,0c0,0,0,0,0,0c0.1,0,0.5,0,0.5,0c0,0,1.7,0,1.7,0c0,0,0.8-0.1,0.8-0.1c0.4,0.1,0.9,1.1,0.9,1.1
		c0.2,0.7,0.5,1.3,0.8,2c-0.2,0.1-2.3,0.6-3.2,0.6c-2.2,0.1-4.4-0.6-6-1.2C10.7,21.2,11,20.4,11,20.2z"/>
	<path fill="#B12126" d="M7.7,19c0.4-0.5,1-1.6,2.1-1.4c0.5,0.1,0.6,0.4,0.8,0.7c0,0.2,0.1,0.3,0.1,0.5c0,0.2-0.1,1.2-0.2,1.4
		c-0.3,1.4-0.3,3-0.5,4.6c-0.1,0.2-0.2,0.3-0.2,0.5c-0.4,0.4-1.2,0.5-1.7,0.4c-0.9-0.1-1.8-0.7-2.1-1.6C6.3,22.2,7,20.4,7.7,19z"/>
	<path fill="#B12126" d="M20.7,24.1C20.7,24.1,20.7,24.1,20.7,24.1c0-0.4,0-0.6,0-0.9c0,0,0,0,0-0.1c-0.1-1.3-0.7-2.4-0.9-3.5
		c0-0.1,0.4-0.8,0.5-0.9c0.4-0.3,1.1-0.5,1.2-0.5c0.3,0.1,0.8,0.5,0.9,0.6c0,0,0.2,0.2,0.3,0.2c0.2,0.2,1.2,1.5,1.3,1.8
		c0.2,0.5,0.4,1.2,0.5,1.9c0,0,0.2,0.9,0.2,1.3c0,0,0,0.2,0,0.4c-0.1,0.2-0.3,0.5-0.4,0.7c-0.1,0.1-0.3,0.2-0.5,0.2
		c-0.5,0.1-1,0.1-1.6,0.2c-0.3,0-0.5,0-0.7,0c-0.1-0.1-0.2-0.2-0.3-0.3c-0.1-0.2-0.2-0.4-0.3-0.5C20.8,24.6,20.8,24.3,20.7,24.1z"/>
</g>
</svg>
