<?xml version="1.0" encoding="utf-8"?>
<!-- Generator: Adobe Illustrator 19.1.0, SVG Export Plug-In . SVG Version: 6.00 Build 0)  -->
<!DOCTYPE svg PUBLIC "-//W3C//DTD SVG 1.1//EN" "http://www.w3.org/Graphics/SVG/1.1/DTD/svg11.dtd">
<svg version="1.1" id="Layer_1" xmlns="http://www.w3.org/2000/svg" xmlns:xlink="http://www.w3.org/1999/xlink" x="0px" y="0px"
	 viewBox="0 0 36 36" enable-background="new 0 0 36 36" xml:space="preserve">
<path fill="#B12126" d="M5,32.3l5.9-5.8l3.2,3.2v-7.8l-7.8,0l3.2,3.2L3.7,31L5,32.3z M6.3,14.1h7.8l0-7.8l-3.2,3.2L5,3.7L3.7,5
	l5.8,5.9L6.3,14.1z M29.7,14.1l-3.2-3.2L32.3,5L31,3.7l-5.8,5.8l-3.2-3.2v7.8L29.7,14.1z M31,32.3l1.3-1.3l-5.8-5.8l3.2-3.2h-7.8
	l0,7.8l3.2-3.2L31,32.3z"/>
<path fill="#B12126" d="M12.7,21.9l-5.9,5.9l-3.2-3.2v7.8l7.8,0l-3.2-3.2l5.8-5.9L12.7,21.9z M11.5,3.7H3.7l0,7.8l3.2-3.2l5.9,5.8
	l1.3-1.3L8.3,6.9L11.5,3.7z M24.5,3.7l3.2,3.2l-5.9,5.9l1.3,1.3l5.9-5.8l3.2,3.2V3.7L24.5,3.7z M23.3,21.9l-1.3,1.3l5.8,5.9
	l-3.2,3.2h7.8l0-7.8l-3.2,3.2L23.3,21.9z"/>
</svg>
