<?xml version="1.0" encoding="utf-8"?>
<!-- Generator: Adobe Illustrator 19.1.0, SVG Export Plug-In . SVG Version: 6.00 Build 0)  -->
<!DOCTYPE svg PUBLIC "-//W3C//DTD SVG 1.1//EN" "http://www.w3.org/Graphics/SVG/1.1/DTD/svg11.dtd">
<svg version="1.1" id="Layer_1" xmlns="http://www.w3.org/2000/svg" xmlns:xlink="http://www.w3.org/1999/xlink" x="0px" y="0px"
	 viewBox="0 0 36 36" enable-background="new 0 0 36 36" xml:space="preserve">
<path fill="#B12126" d="M22,22.7c-0.3,0-0.6-0.1-0.8-0.3c-0.5-0.5-0.5-1.2,0-1.6c0.2-0.2,2.1-2.4-0.1-5.5c-0.4-0.5-0.3-1.3,0.3-1.6
	c0.5-0.4,1.3-0.3,1.6,0.3c2.8,3.8,1.1,7.2-0.1,8.5C22.6,22.5,22.3,22.7,22,22.7L22,22.7z"/>
<path fill="#B12126" d="M25,27.1c-0.2,0-0.5-0.1-0.7-0.2c-0.5-0.4-0.6-1.1-0.2-1.6c0.2-0.3,5.4-7.3,0-14.4c-0.4-0.5-0.3-1.2,0.2-1.6
	c0.5-0.4,1.2-0.3,1.6,0.2c6.6,8.5,0.1,17.1,0,17.2C25.7,26.9,25.4,27.1,25,27.1L25,27.1z"/>
<path fill="#B12126" d="M28.6,30.6c-0.3,0-0.5-0.1-0.7-0.3c-0.5-0.4-0.6-1.1-0.2-1.6c0.3-0.4,8.1-10.3,0-21.4
	c-0.4-0.5-0.3-1.2,0.2-1.6c0.5-0.4,1.2-0.3,1.6,0.2c9.3,12.6,0.1,24.2,0,24.3C29.3,30.4,29,30.6,28.6,30.6L28.6,30.6z"/>
<path fill="#B12126" d="M17.8,7.9c-0.6-0.3-1.4-0.2-1.9,0.3l-5.2,4.5H6c-1,0-1.8,0.8-1.8,1.8v7.3c0,1,0.8,1.8,1.8,1.8h4.7l5.2,4.5
	c0.3,0.3,0.7,0.4,1.1,0.4c0.2,0,0.5-0.1,0.7-0.2c0.6-0.3,1-0.9,1-1.6V9.4C18.8,8.8,18.4,8.1,17.8,7.9z"/>
</svg>
