<?xml version="1.0" encoding="utf-8"?>
<!-- Generator: Adobe Illustrator 19.1.0, SVG Export Plug-In . SVG Version: 6.00 Build 0)  -->
<!DOCTYPE svg PUBLIC "-//W3C//DTD SVG 1.1//EN" "http://www.w3.org/Graphics/SVG/1.1/DTD/svg11.dtd">
<svg version="1.1" id="Layer_1" xmlns="http://www.w3.org/2000/svg" xmlns:xlink="http://www.w3.org/1999/xlink" x="0px" y="0px"
	 viewBox="0 0 36 36" style="enable-background:new 0 0 36 36;" xml:space="preserve">
<style type="text/css">
	.st0{fill:#B12126;}
	.st1{font-family:'Roboto-Regular';}
	.st2{font-size:15px;}
</style>
<text transform="matrix(1 0 0 1 3.8864 18.0003)" class="st0 st1 st2">2.5x</text>
<path class="st0" d="M25.9,31.9l-5.5-3.6c-0.2-0.1-0.5-0.2-0.7-0.3c0.1-0.4,0.2-0.9,0.2-1.3c0-2.9-2.4-5.3-5.3-5.3s-5.3,2.4-5.3,5.3
	c0,2.9,2.4,5.3,5.3,5.3c1.3,0,2.6-0.5,3.5-1.3c0.1,0.2,0.3,0.3,0.5,0.5l5.5,3.6c0.3,0.2,0.6,0.3,0.9,0.3c0.6,0,1.1-0.3,1.4-0.8
	C26.9,33.5,26.7,32.4,25.9,31.9z M14.6,30.6c-2.1,0-3.8-1.7-3.8-3.8c0-2.1,1.7-3.8,3.8-3.8s3.8,1.7,3.8,3.8
	C18.4,28.9,16.7,30.6,14.6,30.6z"/>
</svg>
