<?xml version="1.0" encoding="utf-8"?>
<!-- Generator: Adobe Illustrator 19.1.0, SVG Export Plug-In . SVG Version: 6.00 Build 0)  -->
<!DOCTYPE svg PUBLIC "-//W3C//DTD SVG 1.1//EN" "http://www.w3.org/Graphics/SVG/1.1/DTD/svg11.dtd">
<svg version="1.1" id="Layer_1" xmlns="http://www.w3.org/2000/svg" xmlns:xlink="http://www.w3.org/1999/xlink" x="0px" y="0px"
	 viewBox="0 0 36 36" enable-background="new 0 0 36 36" xml:space="preserve">
<path fill="#B12126" d="M30.9,23.9l-9-5.8c-0.4-0.2-0.7-0.4-1.1-0.4c0.2-0.7,0.3-1.4,0.3-2.2c0-4.7-3.9-8.6-8.6-8.6
	c-4.7,0-8.6,3.9-8.6,8.6s3.9,8.6,8.6,8.6c2.2,0,4.2-0.8,5.7-2.2c0.2,0.3,0.5,0.5,0.8,0.7l9,5.8c0.5,0.3,1,0.4,1.5,0.4
	c0.9,0,1.8-0.4,2.3-1.3C32.5,26.4,32.1,24.7,30.9,23.9z M12.5,21.8c-3.4,0-6.2-2.8-6.2-6.2S9,9.3,12.5,9.3s6.2,2.8,6.2,6.2
	S15.9,21.8,12.5,21.8z"/>
<path fill="#B12126" d="M16.1,14.4h-2.5v-2.5c0-0.6-0.5-1.2-1.2-1.2s-1.2,0.5-1.2,1.2v2.5H8.7c-0.6,0-1.2,0.5-1.2,1.2
	c0,0.6,0.5,1.2,1.2,1.2h2.5v2.5c0,0.6,0.5,1.2,1.2,1.2s1.2-0.5,1.2-1.2v-2.5h2.5c0.6,0,1.2-0.5,1.2-1.2
	C17.2,14.9,16.7,14.4,16.1,14.4z"/>
</svg>
