<?xml version="1.0" encoding="utf-8"?>
<!-- Generator: Adobe Illustrator 19.1.0, SVG Export Plug-In . SVG Version: 6.00 Build 0)  -->
<!DOCTYPE svg PUBLIC "-//W3C//DTD SVG 1.1//EN" "http://www.w3.org/Graphics/SVG/1.1/DTD/svg11.dtd">
<svg version="1.1" id="Layer_1" xmlns="http://www.w3.org/2000/svg" xmlns:xlink="http://www.w3.org/1999/xlink" x="0px" y="0px"
	 viewBox="0 0 36 36" enable-background="new 0 0 36 36" xml:space="preserve">
<path fill="#B12126" d="M30.9,24l-9-5.8c-0.4-0.2-0.7-0.4-1.1-0.4c0.2-0.7,0.3-1.4,0.3-2.2c0-4.8-3.9-8.6-8.6-8.6
	c-4.8,0-8.6,3.9-8.6,8.6c0,4.8,3.9,8.6,8.6,8.6c2.2,0,4.2-0.8,5.7-2.2c0.2,0.3,0.5,0.5,0.8,0.7l9,5.8c0.5,0.3,1,0.4,1.5,0.4
	c0.9,0,1.8-0.4,2.3-1.3C32.6,26.5,32.2,24.8,30.9,24z M12.4,21.8c-3.5,0-6.3-2.8-6.3-6.3c0-3.5,2.8-6.3,6.3-6.3
	c3.5,0,6.3,2.8,6.3,6.3C18.7,19,15.9,21.8,12.4,21.8z"/>
<path fill="#B12126" d="M16.1,16.8H8.7c-0.7,0-1.2-0.5-1.2-1.2c0-0.7,0.5-1.2,1.2-1.2h7.4c0.7,0,1.2,0.5,1.2,1.2
	C17.2,16.2,16.7,16.8,16.1,16.8L16.1,16.8z"/>
</svg>
